<svg xmlns="http://www.w3.org/2000/svg" viewBox="0 0 800 400" fill="none">
  <defs>
    <linearGradient id="profile-bg" x1="94" y1="42" x2="700" y2="348" gradientUnits="userSpaceOnUse">
      <stop stop-color="#DBEAFE"/>
      <stop offset="1" stop-color="#E0F2FE"/>
    </linearGradient>
  </defs>
  <rect width="800" height="400" rx="32" fill="url(#profile-bg)"/>
  <circle cx="674" cy="94" r="60" fill="#BFDBFE" opacity=".5"/>
  <rect x="86" y="54" width="628" height="292" rx="30" fill="#FFFEFF" stroke="#BFDBFE" stroke-width="2"/>
  <rect x="86" y="54" width="628" height="78" rx="30" fill="#2563EB"/>
  <rect x="86" y="108" width="628" height="24" fill="#2563EB"/>
  <circle cx="182" cy="156" r="52" fill="#FFFFFF" stroke="#BFDBFE" stroke-width="8"/>
  <circle cx="182" cy="156" r="34" fill="#93C5FD"/>
  <rect x="256" y="156" width="188" height="14" rx="7" fill="#0F172A"/>
  <rect x="256" y="178" width="136" height="10" rx="5" fill="#94A3B8"/>
  <rect x="256" y="204" width="92" height="24" rx="12" fill="#DBEAFE"/>
  <rect x="358" y="204" width="72" height="24" rx="12" fill="#E0F2FE"/>
  <rect x="120" y="254" width="118" height="56" rx="18" fill="#FFFFFF" stroke="#CBD5E1" stroke-width="2"/>
  <rect x="252" y="254" width="118" height="56" rx="18" fill="#FFFFFF" stroke="#CBD5E1" stroke-width="2"/>
  <rect x="384" y="254" width="118" height="56" rx="18" fill="#FFFFFF" stroke="#CBD5E1" stroke-width="2"/>
  <rect x="528" y="160" width="132" height="150" rx="22" fill="#F8FAFC" stroke="#CBD5E1" stroke-width="2"/>
  <rect x="550" y="184" width="88" height="12" rx="6" fill="#2563EB"/>
  <rect x="550" y="208" width="66" height="8" rx="4" fill="#CBD5E1"/>
  <rect x="550" y="238" width="88" height="22" rx="11" fill="#DBEAFE"/>
  <rect x="550" y="270" width="64" height="22" rx="11" fill="#E0F2FE"/>
  <circle cx="179" cy="282" r="14" fill="#F59E0B"/>
  <circle cx="311" cy="282" r="14" fill="#EC4899"/>
  <circle cx="443" cy="282" r="14" fill="#10B981"/>
</svg>
