<svg xmlns="http://www.w3.org/2000/svg" viewBox="0 0 800 400" fill="none">
  <defs>
    <linearGradient id="majors-bg" x1="108" y1="46" x2="684" y2="346" gradientUnits="userSpaceOnUse">
      <stop stop-color="#EEF2FF"/>
      <stop offset="1" stop-color="#E0E7FF"/>
    </linearGradient>
  </defs>
  <rect width="800" height="400" rx="32" fill="url(#majors-bg)"/>
  <circle cx="676" cy="98" r="56" fill="#C7D2FE" opacity=".45"/>
  <rect x="62" y="56" width="676" height="290" rx="28" fill="#FBFDFF" stroke="#C7D2FE" stroke-width="2"/>
  <rect x="94" y="94" width="172" height="58" rx="18" fill="#FFFFFF" stroke="#CBD5E1" stroke-width="2"/>
  <rect x="94" y="170" width="172" height="58" rx="18" fill="#EEF2FF" stroke="#C7D2FE" stroke-width="2"/>
  <rect x="94" y="246" width="172" height="58" rx="18" fill="#FFFFFF" stroke="#CBD5E1" stroke-width="2"/>
  <rect x="116" y="111" width="94" height="10" rx="5" fill="#94A3B8"/>
  <rect x="116" y="128" width="72" height="8" rx="4" fill="#E2E8F0"/>
  <rect x="116" y="187" width="106" height="10" rx="5" fill="#4F46E5"/>
  <rect x="116" y="204" width="74" height="8" rx="4" fill="#C7D2FE"/>
  <rect x="116" y="263" width="88" height="10" rx="5" fill="#94A3B8"/>
  <rect x="116" y="280" width="62" height="8" rx="4" fill="#E2E8F0"/>
  <path d="M266 123H336V114H404" stroke="#6366F1" stroke-width="4" stroke-linecap="round" stroke-linejoin="round"/>
  <path d="M266 199H336V199H404" stroke="#6366F1" stroke-width="4" stroke-linecap="round" stroke-linejoin="round"/>
  <path d="M266 275H336V284H404" stroke="#6366F1" stroke-width="4" stroke-linecap="round" stroke-linejoin="round"/>
  <circle cx="404" cy="114" r="10" fill="#4F46E5"/>
  <circle cx="404" cy="199" r="10" fill="#4F46E5"/>
  <circle cx="404" cy="284" r="10" fill="#4F46E5"/>
  <rect x="432" y="88" width="268" height="70" rx="20" fill="#FFFFFF" stroke="#CBD5E1" stroke-width="2"/>
  <rect x="432" y="176" width="124" height="58" rx="18" fill="#FFFFFF" stroke="#CBD5E1" stroke-width="2"/>
  <rect x="576" y="176" width="124" height="58" rx="18" fill="#FFFFFF" stroke="#CBD5E1" stroke-width="2"/>
  <rect x="432" y="252" width="268" height="58" rx="18" fill="#EEF2FF" stroke="#C7D2FE" stroke-width="2"/>
  <path d="M414 114H432" stroke="#6366F1" stroke-width="4" stroke-linecap="round"/>
  <path d="M414 199H432" stroke="#6366F1" stroke-width="4" stroke-linecap="round"/>
  <path d="M414 284H432" stroke="#6366F1" stroke-width="4" stroke-linecap="round"/>
  <rect x="458" y="108" width="118" height="10" rx="5" fill="#0F172A"/>
  <rect x="458" y="126" width="162" height="8" rx="4" fill="#CBD5E1"/>
  <rect x="456" y="194" width="66" height="10" rx="5" fill="#6366F1"/>
  <rect x="600" y="194" width="66" height="10" rx="5" fill="#F59E0B"/>
  <rect x="456" y="270" width="120" height="10" rx="5" fill="#4F46E5"/>
  <rect x="456" y="288" width="188" height="8" rx="4" fill="#C7D2FE"/>
</svg>
