<svg width="640" height="360" viewBox="0 0 640 360" fill="none" xmlns="http://www.w3.org/2000/svg">
  <defs>
    <linearGradient id="bg" x1="44" y1="20" x2="592" y2="340" gradientUnits="userSpaceOnUse">
      <stop stop-color="#FFE4E6"/>
      <stop offset="1" stop-color="#DBEAFE"/>
    </linearGradient>
  </defs>
  <rect x="20" y="20" width="600" height="320" rx="24" fill="url(#bg)"/>
  <rect x="66" y="68" width="220" height="220" rx="18" fill="#fff" fill-opacity="0.88"/>
  <circle cx="176" cy="128" r="34" fill="#FCA5A5"/>
  <rect x="112" y="176" width="128" height="14" rx="7" fill="#E5E7EB"/>
  <rect x="97" y="199" width="158" height="14" rx="7" fill="#E5E7EB"/>
  <rect x="121" y="222" width="110" height="14" rx="7" fill="#FECACA"/>
  <rect x="320" y="68" width="254" height="70" rx="14" fill="#fff" fill-opacity="0.88"/>
  <rect x="340" y="90" width="130" height="10" rx="5" fill="#E5E7EB"/>
  <rect x="340" y="108" width="95" height="10" rx="5" fill="#FECACA"/>
  <path d="M507 91L511 101L522 102L514 109L517 120L507 114L497 120L500 109L492 102L503 101L507 91Z" fill="#F59E0B"/>
  <rect x="320" y="152" width="254" height="136" rx="14" fill="#fff" fill-opacity="0.88"/>
  <rect x="340" y="174" width="210" height="10" rx="5" fill="#E5E7EB"/>
  <rect x="340" y="193" width="172" height="10" rx="5" fill="#D1D5DB"/>
  <rect x="340" y="215" width="196" height="10" rx="5" fill="#FECACA"/>
  <rect x="340" y="236" width="184" height="10" rx="5" fill="#E5E7EB"/>
  <rect x="340" y="257" width="156" height="10" rx="5" fill="#E5E7EB"/>
</svg>
