<svg version="1.1" viewBox="0.0 0.0 800.0 400.0" fill="none" stroke="none" stroke-linecap="square" stroke-miterlimit="10" xmlns:xlink="http://www.w3.org/1999/xlink" xmlns="http://www.w3.org/2000/svg"><clipPath id="p.0"><path d="m0 0l800.0 0l0 400.0l-800.0 0l0 -400.0z" clip-rule="nonzero"/></clipPath><g clip-path="url(#p.0)"><path fill="#ffffff" d="m0 0l800.0 0l0 400.0l-800.0 0z" fill-rule="evenodd"/><path fill="#951011" d="m310.25198 33.793083c0 -11.898279 9.645447 -21.54374 21.543732 -21.54374l136.40857 0c5.7137756 0 11.193512 2.2697802 15.233734 6.3100147c4.040222 4.0402355 6.3099976 9.519968 6.3099976 15.233725l0 86.17236c0 11.898277 -9.645447 21.54374 -21.543732 21.54374l-136.40857 0c-11.898285 0 -21.543732 -9.645462 -21.543732 -21.54374z" fill-rule="evenodd"/><path stroke="#595959" stroke-width="1.0" stroke-linejoin="round" stroke-linecap="butt" d="m310.25198 33.793083c0 -11.898279 9.645447 -21.54374 21.543732 -21.54374l136.40857 0c5.7137756 0 11.193512 2.2697802 15.233734 6.3100147c4.040222 4.0402355 6.3099976 9.519968 6.3099976 15.233725l0 86.17236c0 11.898277 -9.645447 21.54374 -21.543732 21.54374l-136.40857 0c-11.898285 0 -21.543732 -9.645462 -21.543732 -21.54374z" fill-rule="evenodd"/><path fill="#000000" fill-opacity="0.0" d="m400.0 141.50919l-127.71652 101.5748" fill-rule="evenodd"/><path stroke="#595959" stroke-width="2.7926509186351707" stroke-linejoin="round" stroke-linecap="butt" d="m400.0 141.50919l-114.60245 91.14499" fill-rule="evenodd"/><path fill="#595959" stroke="#595959" stroke-width="2.7926509186351707" stroke-linecap="butt" d="m282.52634 229.044l-7.0476074 11.498749l12.790039 -4.278427z" fill-rule="evenodd"/><path fill="#951011" d="m182.52231 264.63297c0 -11.89827 9.645462 -21.543732 21.543732 -21.543732l136.4086 0c5.713745 0 11.193481 2.2697906 15.233704 6.310013c4.0402527 4.0402374 6.310028 9.519974 6.310028 15.233719l0 86.17236c0 11.898285 -9.645447 21.543762 -21.543732 21.543762l-136.4086 0c-11.89827 0 -21.543732 -9.645477 -21.543732 -21.543762z" fill-rule="evenodd"/><path stroke="#595959" stroke-width="1.0" stroke-linejoin="round" stroke-linecap="butt" d="m182.52231 264.63297c0 -11.89827 9.645462 -21.543732 21.543732 -21.543732l136.4086 0c5.713745 0 11.193481 2.2697906 15.233704 6.310013c4.0402527 4.0402374 6.310028 9.519974 6.310028 15.233719l0 86.17236c0 11.898285 -9.645447 21.543762 -21.543732 21.543762l-136.4086 0c-11.89827 0 -21.543732 -9.645477 -21.543732 -21.543762z" fill-rule="evenodd"/><path fill="#000000" fill-opacity="0.0" d="m400.0 141.50919l127.71655 101.5748" fill-rule="evenodd"/><path stroke="#595959" stroke-width="2.7926509186351707" stroke-linejoin="round" stroke-linecap="butt" d="m400.0 141.50919l114.60242 91.14499" fill-rule="evenodd"/><path fill="#595959" stroke="#595959" stroke-width="2.7926509186351707" stroke-linecap="butt" d="m511.73123 236.26433l12.79007 4.278427l-7.0476074 -11.498749z" fill-rule="evenodd"/><path fill="#951011" d="m617.46454 264.62772c0 -11.89827 -9.645447 -21.543732 -21.543701 -21.543732l-136.4086 0c-5.713745 0 -11.193481 2.2697906 -15.233704 6.310013c-4.0402527 4.0402374 -6.310028 9.519974 -6.310028 15.233719l0 86.17236c0 11.898285 9.645447 21.543762 21.543732 21.543762l136.4086 0c11.898254 0 21.543701 -9.645477 21.543701 -21.543762z" fill-rule="evenodd"/><path stroke="#595959" stroke-width="1.0" stroke-linejoin="round" stroke-linecap="butt" d="m617.46454 264.62772c0 -11.89827 -9.645447 -21.543732 -21.543701 -21.543732l-136.4086 0c-5.713745 0 -11.193481 2.2697906 -15.233704 6.310013c-4.0402527 4.0402374 -6.310028 9.519974 -6.310028 15.233719l0 86.17236c0 11.898285 9.645447 21.543762 21.543732 21.543762l136.4086 0c11.898254 0 21.543701 -9.645477 21.543701 -21.543762z" fill-rule="evenodd"/><path fill="#000000" fill-opacity="0.0" d="m551.3543 200.0l127.71655 0l0 96.944885l-127.71655 0z" fill-rule="evenodd"/><path fill="#f1be48" d="m570.8543 257.94q0 -1.0 -0.25 -1.75q0 -2.25 3.0 -4.0q2.0 -1.0 3.0 -1.0q1.25 0.25 1.75 1.5q1.5 3.5 2.0 4.75q0.5 1.0 1.0 1.0q0.5 0 1.0 -0.75q8.5 -15.0 15.25 -23.25q5.25 -6.25 6.5 -7.25q4.0 -3.0 9.5 -3.25l0.25 1.25q-4.25 4.25 -14.75 19.0q-10.25 14.75 -14.75 23.25q-1.0 2.25 -2.5 2.75q-0.75 0.75 -3.25 0.5q-1.75 0.25 -2.5 -0.5q-0.75 -0.5 -1.5 -2.0q-2.5 -6.0 -3.75 -10.25z" fill-rule="nonzero"/></g></svg>