<svg xmlns="http://www.w3.org/2000/svg" viewBox="0 0 800 600" role="img" aria-labelledby="title desc">
  <title id="title">Chicken grain bowl</title><desc id="desc">A stylized grain bowl with chicken, rice, greens, and avocado.</desc>
  <defs><linearGradient id="bg" x1="0" y1="0" x2="1" y2="1"><stop stop-color="#e4b66f"/><stop offset="1" stop-color="#9f5e36"/></linearGradient><radialGradient id="plate"><stop stop-color="#f8f3e8"/><stop offset="1" stop-color="#c8d7cf"/></radialGradient></defs>
  <rect width="800" height="600" fill="url(#bg)"/><path d="M0 470c185-80 336-30 472 23 131 51 222 32 328-10v117H0z" fill="#633a2b" opacity=".18"/>
  <ellipse cx="402" cy="327" rx="298" ry="206" fill="#442c24" opacity=".25"/><ellipse cx="400" cy="302" rx="282" ry="196" fill="url(#plate)"/><ellipse cx="400" cy="294" rx="239" ry="153" fill="#f4ebd9"/>
  <path d="M171 299c35-99 102-147 203-154l28 154-94 118c-81-10-127-52-137-118z" fill="#b98a4c"/>
  <g fill="#d9aa65"><rect x="215" y="204" width="100" height="58" rx="18" transform="rotate(-14 215 204)"/><rect x="250" y="285" width="108" height="58" rx="18" transform="rotate(18 250 285)"/><rect x="324" y="185" width="91" height="58" rx="18" transform="rotate(21 324 185)"/></g>
  <path d="M401 157c108 13 190 61 224 143-20 60-56 101-109 123l-116-123z" fill="#3f7657"/><g fill="#76aa5c"><circle cx="490" cy="239" r="51"/><circle cx="550" cy="302" r="54"/><circle cx="489" cy="349" r="46"/></g>
  <path d="M401 302c33-56 77-77 128-65 22 54 7 103-46 146-44-3-71-30-82-81z" fill="#a9c55d"/><path d="M455 263c20 12 32 39 31 81" fill="none" stroke="#e6efaa" stroke-width="13" stroke-linecap="round"/>
</svg>
