<svg xmlns="http://www.w3.org/2000/svg" viewBox="0 0 800 600" role="img" aria-labelledby="title desc">
  <title id="title">Salmon and vegetables</title><desc id="desc">A stylized plate of salmon, vegetables, and potatoes.</desc>
  <defs><linearGradient id="bg" x1="0" y1="0" x2="1" y2="1"><stop stop-color="#698795"/><stop offset="1" stop-color="#263f4c"/></linearGradient><radialGradient id="plate"><stop stop-color="#fffdf3"/><stop offset="1" stop-color="#ced9d7"/></radialGradient></defs>
  <rect width="800" height="600" fill="url(#bg)"/><circle cx="690" cy="73" r="190" fill="#d1e0dc" opacity=".12"/><circle cx="101" cy="538" r="214" fill="#0b2028" opacity=".2"/>
  <ellipse cx="400" cy="329" rx="298" ry="209" fill="#101f27" opacity=".3"/><ellipse cx="400" cy="301" rx="282" ry="196" fill="url(#plate)"/><ellipse cx="400" cy="294" rx="239" ry="153" fill="#f7f2e3"/>
  <path d="M216 233c78-56 167-55 254-4l-37 154c-84 40-159 27-225-39z" fill="#e97960"/><path d="M240 252c67-30 129-28 189 6M226 290c64-28 128-25 191 9M222 329c61-22 120-19 177 8" fill="none" stroke="#f6b28e" stroke-width="10" stroke-linecap="round"/>
  <g fill="#659b57"><circle cx="529" cy="231" r="45"/><circle cx="581" cy="279" r="48"/><circle cx="537" cy="340" r="52"/><path d="m494 183 45 86 28-91"/></g>
  <g fill="#d1a45e"><ellipse cx="300" cy="414" rx="44" ry="28" transform="rotate(12 300 414)"/><ellipse cx="390" cy="431" rx="45" ry="29" transform="rotate(-8 390 431)"/><ellipse cx="479" cy="414" rx="42" ry="26" transform="rotate(16 479 414)"/></g>
</svg>
