<svg xmlns="http://www.w3.org/2000/svg" viewBox="0 0 520 940" role="img" aria-labelledby="title desc">
  <title id="title">Fictional Fresh Market receipt</title><desc id="desc">A generated grocery receipt containing chicken, vegetables, grains, dairy, and pantry items.</desc>
  <defs><filter id="shadow"><feDropShadow dx="0" dy="12" stdDeviation="16" flood-opacity=".28"/></filter><linearGradient id="paper" x1="0" y1="0" x2="1" y2="1"><stop stop-color="#fffdf5"/><stop offset="1" stop-color="#ede7d7"/></linearGradient></defs>
  <rect width="520" height="940" fill="#24333a"/><path d="M53 30h414v854l-12 18-13-18-13 18-13-18-13 18-13-18-13 18-13-18-13 18-13-18-13 18-13-18-13 18-13-18-13 18-13-18-13 18-13-18-13 18-13-18-13 18-13-18-13 18-13-18-13 18-13-18-13 18-13-18-13 18-13-18-13 18-13-18-12 18z" fill="url(#paper)" filter="url(#shadow)"/>
  <g fill="#263238" font-family="Consolas, monospace"><text x="260" y="83" text-anchor="middle" font-size="27" font-weight="700">FRESH MARKET</text><text x="260" y="112" text-anchor="middle" font-size="12">118 OAK STREET</text><text x="260" y="132" text-anchor="middle" font-size="12">AMES, IA 50010</text>
  <path d="M82 155h356M82 752h356" stroke="#263238" stroke-dasharray="5 6"/>
  <g font-size="15"><text x="82" y="190">CHICKEN BREAST 2.1 LB</text><text x="420" y="190" text-anchor="end">12.58</text><text x="82" y="226">BROWN RICE 2 LB</text><text x="420" y="226" text-anchor="end">4.49</text><text x="82" y="262">BLACK BEANS x2</text><text x="420" y="262" text-anchor="end">2.58</text><text x="82" y="298">FLOUR TORTILLAS</text><text x="420" y="298" text-anchor="end">3.79</text><text x="82" y="334">AVOCADO x2</text><text x="420" y="334" text-anchor="end">2.50</text><text x="82" y="370">BELL PEPPER 3CT</text><text x="420" y="370" text-anchor="end">4.29</text><text x="82" y="406">BABY SPINACH</text><text x="420" y="406" text-anchor="end">3.49</text><text x="82" y="442">ROMA TOMATOES</text><text x="420" y="442" text-anchor="end">2.73</text><text x="82" y="478">LIMES x4</text><text x="420" y="478" text-anchor="end">2.00</text><text x="82" y="514">LARGE EGGS</text><text x="420" y="514" text-anchor="end">3.89</text><text x="82" y="550">GREEK YOGURT</text><text x="420" y="550" text-anchor="end">5.29</text><text x="82" y="586">CHEDDAR SHRED</text><text x="420" y="586" text-anchor="end">3.99</text></g>
  <g font-size="15" font-weight="700"><text x="270" y="655">SUBTOTAL</text><text x="420" y="655" text-anchor="end">51.62</text><text x="270" y="689">TAX</text><text x="420" y="689" text-anchor="end">1.03</text><text x="270" y="728">TOTAL</text><text x="420" y="728" text-anchor="end">52.65</text></g>
  <text x="260" y="800" text-anchor="middle" font-size="13">VISA **** 0426</text><text x="260" y="828" text-anchor="middle" font-size="12">07/19/2026  6:42 PM</text><text x="260" y="860" text-anchor="middle" font-size="14" font-weight="700">THANK YOU</text></g>
</svg>
