<svg xmlns="http://www.w3.org/2000/svg" viewBox="0 0 520 940" role="img" aria-labelledby="title desc">
  <title id="title">Fictional Neighborhood Grocer receipt</title><desc id="desc">A generated grocery receipt containing salmon, vegetables, pasta, chickpeas, and bread.</desc>
  <defs><filter id="shadow"><feDropShadow dx="0" dy="12" stdDeviation="16" flood-opacity=".28"/></filter><linearGradient id="paper" x1="0" y1="0" x2="1" y2="1"><stop stop-color="#fffdf6"/><stop offset="1" stop-color="#e9e2d1"/></linearGradient></defs>
  <rect width="520" height="940" fill="#263743"/><path d="M53 30h414v854l-12 18-13-18-13 18-13-18-13 18-13-18-13 18-13-18-13 18-13-18-13 18-13-18-13 18-13-18-13 18-13-18-13 18-13-18-13 18-13-18-13 18-13-18-13 18-13-18-13 18-13-18-13 18-13-18-13 18-13-18-13 18-13-18-12 18z" fill="url(#paper)" filter="url(#shadow)"/>
  <g fill="#263238" font-family="Consolas, monospace"><text x="260" y="80" text-anchor="middle" font-size="24" font-weight="700">NEIGHBORHOOD GROCER</text><text x="260" y="110" text-anchor="middle" font-size="12">LOCAL FOOD, EVERY DAY</text><text x="260" y="132" text-anchor="middle" font-size="12">DES MOINES, IA</text><path d="M82 155h356M82 752h356" stroke="#263238" stroke-dasharray="5 6"/>
  <g font-size="15"><text x="82" y="195">ATLANTIC SALMON 1.4LB</text><text x="420" y="195" text-anchor="end">15.39</text><text x="82" y="235">GOLD POTATOES 3LB</text><text x="420" y="235" text-anchor="end">4.79</text><text x="82" y="275">BROCCOLI CROWNS</text><text x="420" y="275" text-anchor="end">3.16</text><text x="82" y="315">LEMONS x3</text><text x="420" y="315" text-anchor="end">2.25</text><text x="82" y="355">PENNE PASTA</text><text x="420" y="355" text-anchor="end">2.49</text><text x="82" y="395">PARMESAN WEDGE</text><text x="420" y="395" text-anchor="end">6.19</text><text x="82" y="435">MUSHROOMS 8OZ</text><text x="420" y="435" text-anchor="end">3.29</text><text x="82" y="475">CHICKPEAS x2</text><text x="420" y="475" text-anchor="end">2.98</text><text x="82" y="515">SPRING GREENS</text><text x="420" y="515" text-anchor="end">4.49</text><text x="82" y="555">SOURDOUGH LOAF</text><text x="420" y="555" text-anchor="end">5.49</text></g>
  <g font-size="15" font-weight="700"><text x="270" y="655">SUBTOTAL</text><text x="420" y="655" text-anchor="end">50.52</text><text x="270" y="689">TAX</text><text x="420" y="689" text-anchor="end">1.01</text><text x="270" y="728">TOTAL</text><text x="420" y="728" text-anchor="end">51.53</text></g>
  <text x="260" y="800" text-anchor="middle" font-size="13">CARD **** 1189</text><text x="260" y="828" text-anchor="middle" font-size="12">07/13/2026  4:18 PM</text><text x="260" y="860" text-anchor="middle" font-size="14" font-weight="700">SEE YOU SOON</text></g>
</svg>
